<svg width="148" height="133" xmlns="http://www.w3.org/2000/svg"><g fill="none"><path d="M144.018 76.233c-15.666-23.934-14-48.468-21.551-60.003-7.551-11.536-30.055-31.424-83.227 3.232C-13.93 54.117-.408 91.79 7.901 104.475c38.886 59.4 163.864 14.147 136.117-28.242z" fill="#ECF1FE"/><g transform="translate(27.402 20.003)"><ellipse fill="#2FDF84" cx="46.598" cy="46.497" rx="46.598" ry="46.497"/><path d="M9.32 46.497c0-24.108 18.39-43.93 41.938-46.261A46.898 46.898 0 0 0 46.598 0C20.864 0 0 20.818 0 46.497s20.864 46.497 46.598 46.497c1.574 0 3.127-.083 4.66-.236C27.71 90.428 9.32 70.605 9.32 46.497z" fill="#00B871"/><path d="M88.019 102.293c-3.426 0-6.213-2.781-6.213-6.2 0-3.417 2.787-6.199 6.213-6.199 3.425 0 6.213 2.782 6.213 6.2s-2.788 6.2-6.213 6.2zm0-8.266a2.07 2.07 0 0 0-2.071 2.067 2.07 2.07 0 0 0 2.07 2.066 2.07 2.07 0 0 0 2.072-2.066 2.07 2.07 0 0 0-2.071-2.067z" fill="#A4AFC1"/></g><g fill="#000"><path d="M74 116.097c-27.408 0-49.704-22.249-49.704-49.597 0-27.349 22.296-49.597 49.704-49.597s49.705 22.248 49.705 49.597c0 27.348-22.297 49.597-49.705 49.597zm0-92.994c-23.982 0-43.49 19.467-43.49 43.397S50.018 109.897 74 109.897c23.983 0 43.492-19.467 43.492-43.397S97.982 23.103 74 23.103z"/><path d="M69.34 83.032c-.795 0-1.59-.301-2.195-.909L53.684 68.691l4.394-4.386 11.267 11.242 24.728-24.674 4.394 4.385-26.923 26.865a3.118 3.118 0 0 1-2.204.91z"/></g></g></svg>